<svg xmlns="http://www.w3.org/2000/svg" xmlns:xlink="http://www.w3.org/1999/xlink" width="500" zoomAndPan="magnify" viewBox="0 0 375 374.999991" height="500" preserveAspectRatio="xMidYMid meet" version="1.0"><defs><g/></defs><g fill="#ffffff" fill-opacity="1"><g transform="translate(31.051522, 254.309238)"><g><path d="M 103.851562 -1.984375 L 53.578125 -131.304688 C 53.082031 -132.625 50.769531 -132.625 50.273438 -131.304688 L 0.164062 -1.984375 C -0.332031 -0.992188 0.332031 0 1.820312 0 L 24.476562 0 C 25.136719 0 25.964844 -0.332031 26.128906 -0.992188 L 51.925781 -74.746094 L 78.054688 -0.992188 C 78.21875 -0.332031 79.046875 0 79.542969 0 L 102.363281 0 C 103.519531 0 104.347656 -0.992188 103.851562 -1.984375 Z M 103.851562 -1.984375 "/></g></g></g><g fill="#ffffff" fill-opacity="1"><g transform="translate(110.79605, 254.309238)"><g><path d="M 77.394531 -24.476562 L 9.425781 -24.476562 L 0.332031 -2.148438 C -0.164062 -0.828125 0.496094 0 2.148438 0 L 77.226562 0 C 78.386719 0 79.210938 -0.828125 79.210938 -1.488281 L 79.210938 -22.988281 C 79.210938 -23.8125 78.550781 -24.476562 77.394531 -24.476562 Z M 1.820312 -107.65625 L 42.664062 -107.65625 L 19.511719 -49.777344 L 46.632812 -49.777344 L 78.882812 -130.144531 C 79.210938 -131.46875 78.550781 -132.296875 77.0625 -132.296875 L 1.820312 -132.296875 C 0.828125 -132.296875 0 -131.46875 0 -130.808594 L 0 -109.308594 C 0 -108.484375 0.828125 -107.65625 1.820312 -107.65625 Z M 1.820312 -107.65625 "/></g></g></g><g fill="#00a3ff" fill-opacity="1"><g transform="translate(166.677152, 254.309238)"><g><path d="M 103.851562 -1.984375 L 53.578125 -131.304688 C 53.082031 -132.625 50.769531 -132.625 50.273438 -131.304688 L 0.164062 -1.984375 C -0.332031 -0.992188 0.332031 0 1.820312 0 L 24.476562 0 C 25.136719 0 25.964844 -0.332031 26.128906 -0.992188 L 51.925781 -74.746094 L 78.054688 -0.992188 C 78.21875 -0.332031 79.046875 0 79.542969 0 L 102.363281 0 C 103.519531 0 104.347656 -0.992188 103.851562 -1.984375 Z M 103.851562 -1.984375 "/></g></g></g><g fill="#b500ff" fill-opacity="1"><g transform="translate(351.664594, 120.690505)"><g><path d="M -103.851562 1.984375 L -53.578125 131.304688 C -53.082031 132.625 -50.769531 132.625 -50.273438 131.304688 L -0.164062 1.984375 C 0.332031 0.992188 -0.332031 0 -1.820312 0 L -24.476562 0 C -25.136719 0 -25.964844 0.332031 -26.128906 0.992188 L -51.925781 74.746094 L -78.054688 0.992188 C -78.21875 0.332031 -79.046875 0 -79.542969 0 L -102.363281 0 C -103.519531 0 -104.347656 0.992188 -103.851562 1.984375 Z M -103.851562 1.984375 "/></g></g></g></svg>