<?xml version="1.0" encoding="UTF-8"?>
<svg width="200px" height="50px" viewBox="0 0 200 50" version="1.1" xmlns="http://www.w3.org/2000/svg">
  <defs>
    <linearGradient id="logoGradient" x1="0%" y1="0%" x2="100%" y2="100%">
      <stop offset="0%" stop-color="#00A3FF" />
      <stop offset="100%" stop-color="#B500FF" />
    </linearGradient>
  </defs>
  <g fill="url(#logoGradient)" fill-rule="evenodd">
    <path d="M15,10 L5,40 L10,40 L12,34 L23,34 L25,40 L30,40 L20,10 L15,10 Z M13.5,29 L17.5,17 L21.5,29 L13.5,29 Z" />
    <path d="M35,10 L35,38 L30,40 L30,10 L35,10 Z" />
    <path d="M70,10 L65,10 L48,40 L53,40 L65,18 L77,40 L82,40 L65,10 Z" />
    <path d="M95,10 L95,40 L100,40 L100,10 L95,10 Z" />
    <path d="M105,10 L105,15 L115,15 L115,40 L120,40 L120,15 L130,15 L130,10 L105,10 Z" />
    <path d="M135,10 L135,40 L155,40 L155,35 L140,35 L140,28 L152,28 L152,23 L140,23 L140,15 L155,15 L155,10 L135,10 Z" />
    <circle cx="170" cy="15" r="5" />
    <path d="M167.5,25 L167.5,40 L172.5,40 L172.5,25 L167.5,25 Z" />
    <path d="M180,10 L180,40 L185,40 L185,28 L195,40 L200,40 L190,28 L200,17 L195,15 L185,27 L185,10 L180,10 Z" />
  </g>
</svg>
